<?xml version="1.0" encoding="UTF-8" standalone="no"?>
<!-- Created with Inkscape (http://www.inkscape.org/) -->

<svg
   width="49.903259mm"
   height="49.903259mm"
   viewBox="0 0 49.903259 49.903259"
   version="1.1"
   id="svg1"
   inkscape:version="1.4.3 (fcd0343856, 2026-01-01)"
   xmlns:inkscape="http://www.inkscape.org/namespaces/inkscape"
   xmlns:sodipodi="http://sodipodi.sourceforge.net/DTD/sodipodi-0.dtd"
   xmlns="http://www.w3.org/2000/svg"
   xmlns:svg="http://www.w3.org/2000/svg">
  <sodipodi:namedview
     id="namedview1"
     pagecolor="#ffffff"
     bordercolor="#000000"
     borderopacity="0.25"
     inkscape:showpageshadow="2"
     inkscape:pageopacity="0.0"
     inkscape:pagecheckerboard="0"
     inkscape:deskcolor="#d1d1d1"
     inkscape:document-units="mm"
     inkscape:zoom="0.43740881"
     inkscape:cx="54.868579"
     inkscape:cy="-3.4292862"
     inkscape:window-width="1366"
     inkscape:window-height="699"
     inkscape:window-x="0"
     inkscape:window-y="0"
     inkscape:window-maximized="1"
     inkscape:current-layer="layer1" />
  <defs
     id="defs1">
    <rect
       x="76.587395"
       y="78.873589"
       width="129.74133"
       height="141.74384"
       id="rect3" />
  </defs>
  <g
     inkscape:label="Layer 1"
     inkscape:groupmode="layer"
     id="layer1"
     transform="translate(-90.487503,-149.22501)">
    <path
       id="rect2"
       style="fill:#00e0e0;stroke-width:0.601001;stroke-linecap:square"
       d="M 98.502269,149.22501 H 132.376 c 4.44018,0 8.01476,3.57458 8.01476,8.01476 v 33.87373 c 0,4.44018 -3.57458,8.01477 -8.01476,8.01477 H 98.502269 c -4.44018,0 -8.014766,-3.57459 -8.014766,-8.01477 v -33.87373 c 0,-4.44018 3.574586,-8.01476 8.014766,-8.01476 z" />
    <path
       d="m -189.21506,104.21479 q -0.46688,-0.74276 -0.80643,-1.3582 -0.31833,-0.61544 -0.50933,-1.23087 -0.21222,-0.61544 -0.2971,-1.27332 -0.10611,-0.657878 -0.10611,-1.443089 0,-1.973639 0.53054,-3.544061 0.55177,-1.549201 1.48554,-2.631519 0.95499,-1.061096 2.2283,-1.634088 1.29454,-0.572992 2.80129,-0.572992 1.52798,0 2.82252,0.572992 1.29454,0.594214 2.20708,1.697754 0.93377,1.10354 1.44309,2.695184 0.53055,1.612867 0.53055,3.671393 0,1.506756 -0.16978,2.737626 -0.14855,1.2521 -0.38199,2.31319 h 0.6791 q 0.82766,0 1.42187,-0.31833 0.61544,-0.31833 0.99743,-0.89132 0.40322,-0.57299 0.57299,-1.37942 0.191,-0.80644 0.191,-1.761422 0,-1.994861 -0.40322,-3.52284 -0.38199,-1.506756 -1.12476,-2.907403 l 4.11705,-2.037305 q 1.48554,2.164636 2.27075,4.52027 0.78521,2.376855 0.78521,5.0296 0,2.05852 -0.46688,3.79872 -0.44566,1.76142 -1.48554,3.01351 -1.01865,1.2521 -2.67396,1.95242 -1.65531,0.72155 -4.03216,0.72155 h -8.00067 v 2.94984 h -5.81481 v -9.16787 z m 3.2894,-4.838596 q 0,1.506756 0.4881,2.737626 0.48811,1.23087 1.18843,2.10097 h 2.8013 v -5.093259 q 0,-0.488105 -0.14856,-0.954987 -0.14855,-0.466882 -0.42444,-0.848877 -0.27588,-0.360773 -0.6791,-0.594214 -0.40321,-0.212219 -0.93376,-0.212219 -0.97621,0 -1.63409,0.700323 -0.65788,0.721546 -0.65788,2.164637 z"
       id="text2"
       style="font-weight:bold;font-size:43.4625px;line-height:1.2;font-family:Arvo;-inkscape-font-specification:'Arvo Bold';letter-spacing:-3.38433px;writing-mode:tb-rl;fill:#ffffff;stroke-width:2.17776;stroke-linecap:square"
       transform="rotate(-90)"
       aria-label="a" />
    <path
       d="m 173.06038,81.374347 v 3.430987 h 21.40493 v -3.430987 h 6.13151 l -0.0443,16.358062 q 0,2.279941 -0.81901,4.161451 -0.79688,1.90365 -2.19141,3.27604 -1.37239,1.3724 -3.23177,2.125 -1.83723,0.77474 -3.91796,0.77474 -2.4349,0 -4.02865,-0.86328 -1.59374,-0.84114 -2.5677,-2.41276 -1.0625,1.66016 -2.63411,2.61198 -1.54948,0.97396 -3.78516,0.97396 -2.27994,0 -4.18359,-0.79688 -1.90364,-0.77474 -3.29817,-2.14713 -1.3724,-1.35026 -2.14714,-3.20963 -0.7526,-1.85938 -0.7526,-4.006513 v -16.84504 z m 7.8138,10.779941 h -7.8138 v 5.578121 q 0,0.641926 0.33203,1.195311 0.33203,0.575521 0.86328,0.973958 0.55339,0.420572 1.26172,0.664062 0.73047,0.24349 1.50521,0.24349 0.81901,0 1.5052,-0.24349 0.70834,-0.24349 1.21745,-0.664062 0.53125,-0.420573 0.81901,-0.996093 0.3099,-0.553385 0.3099,-1.173176 z m 13.59113,0 h -7.52603 v 5.268225 q 0,0.619791 0.30989,1.173176 0.3099,0.553385 0.81901,0.951823 0.53125,0.420572 1.17318,0.664058 0.66406,0.24349 1.37239,0.24349 0.6862,0 1.3724,-0.24349 0.68619,-0.243486 1.23958,-0.664058 0.55338,-0.398438 0.88542,-0.951823 0.35416,-0.553385 0.35416,-1.173176 z"
       id="text3"
       style="font-weight:bold;font-size:45.3333px;line-height:1.2;font-family:Arvo;-inkscape-font-specification:'Arvo Bold';letter-spacing:-3.53px;writing-mode:tb-rl;white-space:pre;fill:#6a6a6a;stroke-width:2.2715;stroke-linecap:square"
       transform="matrix(0,-0.94501829,0.94501829,0,37.657371,348.21489)"
       aria-label="B" />
  </g>
</svg>
