<?xml version="1.0" encoding="UTF-8"?>
<!-- Created with Inkscape (http://www.inkscape.org/) -->
<svg id="svg1" width="52.662mm" height="11.871mm" version="1.1" viewBox="0 0 52.662 11.871" xmlns="http://www.w3.org/2000/svg">
 <g id="layer1" transform="translate(-40.468 -97.409)">
  <g id="text1" transform="matrix(0 -.26458 .26458 0 79.836 234.27)" style="fill-opacity:.8;fill:#5e5e5e;stroke-linecap:square;stroke-width:2.2715;white-space:pre" aria-label="airBuddy">
   <path id="path1" d="m484.95-134.65q-1.2174-1.306-1.9922-2.8997-0.77474-1.5716-0.77474-3.5859 0-1.6823 0.53125-3.099 0.53125-1.3945 1.4388-2.4128 0.92968-1.0182 2.1471-1.5938 1.2174-0.55339 2.5898-0.55339 1.4609 0 2.5898 0.42057 1.1289 0.44271 1.9479 1.151 0.84115 0.73047 1.3945 1.6823 0.57552 0.97395 0.90755 2.0143 0.35417 1.0625 0.48698 2.1471 0.15495 1.1068 0.15495 2.1029 0 1.5938-0.11068 2.6784-0.0885 1.0846-0.26562 1.97l1.8815 0.0221q1.2174 0 2.1029-0.35416 0.90755-0.35417 1.4831-0.9961 0.59766-0.64192 0.88542-1.5495 0.28776-0.88542 0.28776-1.9922 0-1.0404-0.15495-1.9922-0.13281-0.95182-0.3763-1.793-0.22136-0.81901-0.53125-1.5274-0.28776-0.68619-0.61979-1.1732l2.8555-1.3503q0.53125 0.81901 0.97396 1.793 0.46485 0.97395 0.77474 2.0364 0.33203 1.0846 0.50912 2.1914 0.19921 1.1289 0.19921 2.2135 0 1.9922-0.48698 3.5859-0.46484 1.5938-1.4609 2.7005t-2.5456 1.7044q-1.5274 0.59765-3.6745 0.59765l-11.466-0.0221v2.5456h-3.8073v-6.6628zm0.6862-5.5781q0 0.81901 0.19922 1.638t0.53125 1.5495q0.35416 0.73047 0.79687 1.3503 0.46485 0.61979 0.95182 1.0404l5.1797 0.0221v-4.7812q0-1.1953-0.26563-2.1914-0.26562-0.97396-0.77474-1.7044-0.50911-0.70833-1.2617-1.1068-0.75261-0.39844-1.7266-0.39844-0.90756 0-1.5938 0.33203-0.66407 0.33204-1.1289 0.92969-0.44271 0.61979-0.6862 1.4609-0.22135 0.84114-0.22135 1.8594zm20.121 17.942v7.4818h-19.125v3.4531h-3.8073v-10.891h3.8073v3.276h15.318v-3.3203zm8.1237 2.5456q0.57552 0 1.0846 0.22135 0.53125 0.24349 0.90755 0.61979 0.39844 0.39844 0.61979 0.92969 0.24349 0.53125 0.24349 1.1289 0 0.57552-0.24349 1.0846-0.22135 0.53125-0.61979 0.90755-0.3763 0.39844-0.90755 0.61979-0.50912 0.24349-1.0846 0.24349-0.59765 0-1.1289-0.24349-0.53125-0.22135-0.95183-0.61979-0.39843-0.3763-0.64192-0.90755-0.22136-0.50911-0.22136-1.0846 0-0.59766 0.22136-1.1289 0.24349-0.53125 0.64192-0.92969 0.42058-0.3763 0.95183-0.61979 0.53125-0.22135 1.1289-0.22135zm-12.971 29.895v-4.2057h1.4167q0-0.73047-0.28776-1.5052-0.26562-0.7526-0.84114-1.4167-0.55339-0.66406-1.4388-1.1732-0.86328-0.48698-2.0586-0.70833h-11.068v3.8958h-3.8073v-11.378h3.8073v3.1654l15.318 0.0221v-3.1875h3.8073v7.3268h-3.1654q0.70833 0.39844 1.306 0.88542 0.61979 0.50911 1.0625 1.1068 0.46484 0.61979 0.70833 1.3503 0.26562 0.7526 0.26562 1.6159 0 1.151 0 2.1693 0 1.0182-0.0443 2.0365z" style="fill:#00e0e0"/>
   <path id="path2" d="m488.89-83.566v3.431h21.405v-3.431h6.1315l-0.0443 16.358q0 2.2799-0.81901 4.1615-0.79687 1.9036-2.1914 3.276-1.3724 1.3724-3.2318 2.125-1.8372 0.77474-3.918 0.77474-2.4349 0-4.0286-0.86328-1.5938-0.84114-2.5677-2.4128-1.0625 1.6602-2.6341 2.612-1.5495 0.97396-3.7852 0.97396-2.28 0-4.1836-0.79687-1.9036-0.77474-3.2982-2.1471-1.3724-1.3503-2.1471-3.2096-0.75261-1.8594-0.75261-4.0065v-16.845zm7.8138 10.78h-7.8138v5.5781q0 0.64193 0.33203 1.1953 0.33204 0.57552 0.86329 0.97396 0.55338 0.42057 1.2617 0.66406 0.73047 0.24349 1.5052 0.24349 0.81901 0 1.5052-0.24349 0.70833-0.24349 1.2174-0.66406 0.53124-0.42057 0.819-0.99609 0.3099-0.55338 0.3099-1.1732zm13.591 0h-7.526v5.2682q0 0.61979 0.3099 1.1732 0.30989 0.55338 0.81901 0.95182 0.53125 0.42057 1.1732 0.66406 0.66406 0.24349 1.3724 0.24349 0.68619 0 1.3724-0.24349 0.6862-0.24349 1.2396-0.66406 0.55339-0.39844 0.88542-0.95182 0.35417-0.55338 0.35417-1.1732zm-4.5378 29.872v10.846h-16.867v2.7669h-6.0651v-9.7174h1.9479q-1.0625-1.1732-1.638-2.7448-0.57552-1.5716-0.57552-3.6302 0-1.9036 0.59766-3.5859 0.59765-1.6823 1.793-2.944 1.2174-1.2396 3.0326-1.97 1.8151-0.70833 4.2721-0.70833h7.4375v-2.9883h6.0651v10.138h-13.503q-2.3021 0-3.4531 1.1732-1.1289 1.1732-1.1289 3.0547 0 1.3281 0.81901 2.4128 0.81901 1.0846 2.2135 1.5716h8.987v-3.6745zm11.51 27.017v10.027h-28.378v4.4714h-6.0651v-11.289h0.88542q-0.61979-1.1953-0.97396-2.457-0.35416-1.2396-0.35416-2.5234 0-2.6341 0.92968-4.8477 0.95183-2.1914 2.5898-3.7852 1.638-1.5716 3.8294-2.457 2.2135-0.88542 4.737-0.88542 2.5234 0 4.6927 0.86328 2.1914 0.88542 3.8073 2.4349 1.6159 1.5716 2.5456 3.7409 0.92969 2.1914 0.92969 4.8034 0 1.4388-0.28776 2.7005-0.26563 1.2617-0.77474 2.4128h5.8216v-3.2096zm-28.776-1.3945q0.0443 1.4609 0.7526 2.6341 0.70833 1.1953 1.8594 1.9701h6.7513q1.1732-0.77474 1.8151-2.0143 0.66407-1.2174 0.64193-2.5898 0.0221-1.151-0.39844-2.1693-0.42057-0.99609-1.1953-1.7708-0.77474-0.7526-1.8594-1.1953-1.0846-0.44271-2.457-0.44271-1.3503 0-2.457 0.44271-1.0846 0.44271-1.8594 1.1953-0.75261 0.77474-1.151 1.7708-0.39843 1.0182-0.4427 2.1693zm28.776 28.854v10.027h-28.378v4.4714h-6.0651v-11.289h0.88542q-0.61979-1.1953-0.97396-2.457-0.35416-1.2396-0.35416-2.5234 0-2.6341 0.92968-4.8477 0.95183-2.1914 2.5898-3.7852 1.638-1.5716 3.8294-2.457 2.2135-0.88542 4.737-0.88542 2.5234 0 4.6927 0.86328 2.1914 0.88542 3.8073 2.4349 1.6159 1.5716 2.5456 3.7409 0.92969 2.1914 0.92969 4.8034 0 1.4388-0.28776 2.7005-0.26563 1.2617-0.77474 2.4128h5.8216v-3.2096zm-28.776-1.3945q0.0443 1.4609 0.7526 2.6341 0.70833 1.1953 1.8594 1.97h6.7513q1.1732-0.77474 1.8151-2.0143 0.66407-1.2174 0.64193-2.5898 0.0221-1.151-0.39844-2.1693-0.42057-0.99609-1.1953-1.7708-0.77474-0.7526-1.8594-1.1953-1.0846-0.44271-2.457-0.44271-1.3503 0-2.457 0.44271-1.0846 0.44271-1.8594 1.1953-0.75261 0.77474-1.151 1.7708-0.39843 1.0182-0.4427 2.1693zm17.266 14.643v11.245h-6.0651v-1.7708l-8.5885 3.2982 8.5885 3.3867v-1.97h6.0651v11.245h-6.0651v-2.5013l-21.228-8.8763v3.9401h-6.0651v-14.233h6.0651v4.0065l4.3607 1.7266 16.867-7.1719v-2.3242z"/>
  </g>
 </g>
</svg>
