<?xml version="1.0" encoding="UTF-8" standalone="no"?>
<!-- Created with Inkscape (http://www.inkscape.org/) -->

<svg
   width="49.903259mm"
   height="49.903259mm"
   viewBox="0 0 49.903259 49.903259"
   version="1.1"
   id="svg1"
   inkscape:version="1.4.3 (fcd0343856, 2026-01-01)"
   sodipodi:docname="ab-icon.svg"
   inkscape:export-filename="ab-icon.png"
   inkscape:export-xdpi="254.49239"
   inkscape:export-ydpi="254.49239"
   xmlns:inkscape="http://www.inkscape.org/namespaces/inkscape"
   xmlns:sodipodi="http://sodipodi.sourceforge.net/DTD/sodipodi-0.dtd"
   xmlns="http://www.w3.org/2000/svg"
   xmlns:svg="http://www.w3.org/2000/svg">
  <sodipodi:namedview
     id="namedview1"
     pagecolor="#ffffff"
     bordercolor="#000000"
     borderopacity="0.25"
     inkscape:showpageshadow="2"
     inkscape:pageopacity="0.0"
     inkscape:pagecheckerboard="0"
     inkscape:deskcolor="#d1d1d1"
     inkscape:document-units="mm"
     inkscape:zoom="1.2371789"
     inkscape:cx="160.04152"
     inkscape:cy="162.06225"
     inkscape:window-width="1366"
     inkscape:window-height="699"
     inkscape:window-x="0"
     inkscape:window-y="0"
     inkscape:window-maximized="1"
     inkscape:current-layer="layer1"
     showguides="true">
    <sodipodi:guide
       position="-6.3513237,-9.375763"
       orientation="0,-1"
       id="guide1"
       inkscape:locked="false" />
  </sodipodi:namedview>
  <defs
     id="defs1">
    <rect
       x="76.587395"
       y="78.873589"
       width="129.74133"
       height="141.74384"
       id="rect3" />
  </defs>
  <g
     inkscape:label="Layer 1"
     inkscape:groupmode="layer"
     id="layer1"
     transform="translate(-90.487503,-149.22501)">
    <path
       id="rect2"
       style="fill:#00d1eb;stroke-width:0.601001;stroke-linecap:square;fill-opacity:1"
       d="M 98.502269,149.22501 H 132.376 c 4.44018,0 8.01476,3.57458 8.01476,8.01476 v 33.87373 c 0,4.44018 -3.57458,8.01477 -8.01476,8.01477 H 98.502269 c -4.44018,0 -8.014766,-3.57459 -8.014766,-8.01477 v -33.87373 c 0,-4.44018 3.574586,-8.01476 8.014766,-8.01476 z" />
    <path
       style="fill:#dbdbdb;fill-opacity:1;stroke:none;stroke-width:0.320239;stroke-linecap:square"
       d="m 166.88133,167.86831 h -19.28759 l 2.54533,-0.68204 c 1.14909,-1.94999 2.29787,-0.39696 2.92926,-0.535 1.45978,-1.12409 2.78112,-1.21808 4.31734,-0.81386 0,0 2.51026,-1.10129 4.37674,1.12031 z"
       id="path3"
       sodipodi:nodetypes="ccccccc" />
    <path
       d="m 106.58322,189.60884 c -0.51864,0.32599 -1.36707,0.95506 -1.79679,1.19215 -0.42974,0.22227 -0.85946,0.40009 -1.28918,0.53347 -0.42972,0.14817 -0.87427,0.2519 -1.33364,0.31116 -0.45935,0.0741 -0.96318,0.11113 -1.51144,0.11113 -1.378084,0 -1.973812,-0.10502 -3.07035,-0.47547 -1.081722,-0.38527 -2.000444,-0.9039 -2.756167,-1.5559 -0.740904,-0.66681 -1.3114,-1.44477 -1.711489,-2.33384 -0.400089,-0.90391 -0.600133,-1.8819 -0.600133,-2.93399 0,-1.06688 0.200044,-2.0523 0.600133,-2.9562 0.414907,-0.90392 1.00763,-1.67446 1.778172,-2.31163 0.77054,-0.652 1.711489,-1.15581 2.822846,-1.51144 1.126175,-0.37046 2.407948,-0.55568 3.845288,-0.55568 1.0521,0 2.00786,0.0593 2.86731,0.17781 0.87426,0.1037 1.68185,0.23709 2.42276,0.4001 v -0.71128 c 0,-0.5779 -0.11114,-1.07431 -0.33341,-1.48922 -0.22228,-0.42972 -0.53345,-0.77795 -0.93354,-1.04468 -0.40009,-0.28154 -0.88168,-0.48158 -1.44476,-0.60013 -0.5631,-0.13336 -1.17805,-0.20004 -1.84486,-0.20004 -1.3929,0 -2.622791,0.14078 -3.689703,0.42232 -1.052084,0.26672 -2.067122,0.65941 -3.045118,1.17804 l -2.133805,-4.31206 c 1.511446,-1.03727 3.089572,-1.83005 4.73438,-2.37831 1.659621,-0.54826 3.415566,-0.82241 5.267846,-0.82241 1.43735,0 2.76356,0.16301 3.97865,0.489 1.22989,0.31118 2.28198,0.82982 3.15625,1.55591 6.13715,5.61142 4.12284,15.04348 -0.48031,21.54961 l -3.92649,-0.0832 z m -4.80046,-3.01748 c 1.05208,0 2.00784,-0.17041 2.86729,-0.51122 0.85945,-0.34082 1.59294,-0.75572 2.20049,-1.24473 v -2.93398 h -5.33452 c -0.34082,0 -0.67423,0.0519 -1.00022,0.1556 -0.326,0.10369 -0.622358,0.2519 -0.889089,0.44455 -0.251903,0.19262 -0.459357,0.42971 -0.622355,0.71126 -0.14818,0.28154 -0.222271,0.60753 -0.222271,0.97798 0,0.68165 0.244499,1.25214 0.733494,1.7115 0.503811,0.45936 1.259541,0.68904 2.267181,0.68904 z"
       id="text2"
       style="font-weight:bold;font-size:43.4625px;line-height:1.2;font-family:Arvo;-inkscape-font-specification:'Arvo Bold';letter-spacing:-3.38433px;writing-mode:tb-rl;fill:#ffffff;fill-opacity:1;stroke-width:2.28092;stroke-linecap:square"
       aria-label="a"
       sodipodi:nodetypes="ccccscccscccsccscccsccccscccccssccssccscs" />
    <path
       d="m 114.05693,163.51514 -1.05855,-6.19983 c 2.96153,-0.0632 4.32277,-0.0133 7.27979,0.024 l 7.67306,0.0207 c 1.53689,0 2.9395,0.27605 4.20781,0.82815 1.28325,0.53715 2.38744,1.27577 3.31256,2.21582 0.92511,0.92511 1.64135,2.01439 2.14867,3.26778 0.52225,1.23848 0.78337,2.55902 0.78337,3.96162 0,1.64136 -0.29096,2.9992 -0.8729,4.07355 -0.567,1.07432 -1.38022,1.93976 -2.43964,2.59631 1.1191,0.71622 1.99947,1.60403 2.64109,2.66346 0.65654,1.0445 0.98481,2.32028 0.98481,3.82734 0,1.53689 -0.26859,2.94697 -0.80577,4.23021 -0.52224,1.28322 -1.24593,2.39487 -2.17105,3.33492 -0.9102,0.92513 -1.992,1.64882 -3.2454,2.17107 -1.2534,0.50732 -2.60378,0.76097 -4.05115,0.76097 h -17.03275 c 12.17837,-13.60757 2.64605,-27.77607 2.64605,-27.77607 z m 8.25404,13.74255 v 7.90087 h 5.64028 c 0.43271,0 0.83559,-0.11191 1.20862,-0.33573 0.38796,-0.22381 0.71623,-0.51478 0.98481,-0.87289 0.28351,-0.37305 0.50732,-0.7983 0.67146,-1.27578 0.16414,-0.4924 0.24621,-0.99974 0.24621,-1.52199 0,-0.55209 -0.0821,-1.05941 -0.24621,-1.52196 -0.16414,-0.4775 -0.38795,-0.88784 -0.67146,-1.23104 -0.2835,-0.3581 -0.61922,-0.63414 -1.00718,-0.82812 -0.37305,-0.20891 -0.76846,-0.31336 -1.18625,-0.31336 z m 0,-13.74258 v 7.6099 h 5.32693 c 0.41779,0 0.81321,-0.10446 1.18624,-0.31334 0.37304,-0.20891 0.69385,-0.48495 0.96244,-0.82815 0.2835,-0.3581 0.50732,-0.75352 0.67145,-1.18625 0.16414,-0.44764 0.2462,-0.9102 0.2462,-1.38767 0,-0.46257 -0.0821,-0.92514 -0.2462,-1.3877 -0.16413,-0.46256 -0.38795,-0.88035 -0.67145,-1.2534 -0.26859,-0.37302 -0.5894,-0.67146 -0.96244,-0.89528 -0.37303,-0.23875 -0.76845,-0.35811 -1.18624,-0.35811 z"
       id="text3"
       style="font-weight:bold;font-size:45.3333px;line-height:1.2;font-family:Arvo;-inkscape-font-specification:'Arvo Bold';letter-spacing:-3.53px;writing-mode:tb-rl;white-space:pre;fill:#ffffff;fill-opacity:1;stroke-width:2.29682;stroke-linecap:square"
       aria-label="B"
       sodipodi:nodetypes="cccccccscccscccscccscccscccscccssccssccscc" />
    <path
       style="fill:#ffffff;fill-opacity:1;stroke:none;stroke-width:0.651455;stroke-linecap:square"
       d="m 92.51288,163.70308 37.45892,-0.38723 5.521,-2.86185 c -2.14404,-2.15406 -6.60218,-5.26797 -11.03236,-5.75188 -6.90168,-0.35303 -5.80746,3.3039 -10.28876,2.17304 -3.64462,-0.91973 -5.85155,1.46469 -8.17631,3.50762 -4.97324,-1.78728 -5.03812,2.16259 -13.48249,3.3203 z"
       id="path1"
       sodipodi:nodetypes="ccccscc" />
    <path
       style="fill:#ffffff;fill-opacity:0.555556;stroke:none;stroke-width:0.438354;stroke-linecap:square"
       d="m 77.997744,185.32456 h -21.13979 c 3.02219,-0.49293 5.599,-1.3344 6.39607,-3.56872 4.28981,-2.55723 4.2505,0.57018 6.28315,1.15466 2.5e-4,-1.6e-4 3.37173,-1.75724 5.33242,1.67993 1.45572,0.90552 2.10579,0.52199 3.12815,0.73413 z"
       id="path2"
       sodipodi:nodetypes="cccccc" />
  </g>
</svg>
