<?xml version="1.0" encoding="UTF-8" standalone="no"?>
<!-- Created with Inkscape (http://www.inkscape.org/) -->

<svg
   id="svg1"
   width="52.662mm"
   height="11.871mm"
   version="1.1"
   viewBox="0 0 52.662 11.871"
   sodipodi:docname="airbuddy-logo.svg"
   inkscape:version="1.4.3 (fcd0343856, 2026-01-01)"
   xmlns:inkscape="http://www.inkscape.org/namespaces/inkscape"
   xmlns:sodipodi="http://sodipodi.sourceforge.net/DTD/sodipodi-0.dtd"
   xmlns="http://www.w3.org/2000/svg"
   xmlns:svg="http://www.w3.org/2000/svg">
  <defs
     id="defs1" />
  <sodipodi:namedview
     id="namedview1"
     pagecolor="#ffffff"
     bordercolor="#000000"
     borderopacity="0.25"
     inkscape:showpageshadow="2"
     inkscape:pageopacity="0.0"
     inkscape:pagecheckerboard="0"
     inkscape:deskcolor="#d1d1d1"
     inkscape:document-units="mm"
     inkscape:zoom="2.5924766"
     inkscape:cx="99.518738"
     inkscape:cy="22.565295"
     inkscape:window-width="1366"
     inkscape:window-height="699"
     inkscape:window-x="0"
     inkscape:window-y="0"
     inkscape:window-maximized="1"
     inkscape:current-layer="text1" />
  <g
     id="layer1"
     transform="translate(-40.468 -97.409)">
    <g
       id="text1"
       transform="matrix(0 -.26458 .26458 0 79.836 234.27)"
       style="fill-opacity:.8;fill:#5e5e5e;stroke-linecap:square;stroke-width:2.2715;white-space:pre"
       aria-label="airBuddy">
      <path
         id="path4"
         d="m484.95-134.65q-1.2174-1.306-1.9922-2.8997-0.77474-1.5716-0.77474-3.5859 0-1.6823 0.53125-3.099 0.53125-1.3945 1.4388-2.4128 0.92968-1.0182 2.1471-1.5938 1.2174-0.55339 2.5898-0.55339 1.4609 0 2.5898 0.42057 1.1289 0.44271 1.9479 1.151 0.84115 0.73047 1.3945 1.6823 0.57552 0.97395 0.90755 2.0143 0.35417 1.0625 0.48698 2.1471 0.15495 1.1068 0.15495 2.1029 0 1.5938-0.11068 2.6784-0.0885 1.0846-0.26562 1.97l1.8815 0.0221q1.2174 0 2.1029-0.35416 0.90755-0.35417 1.4831-0.9961 0.59766-0.64192 0.88542-1.5495 0.28776-0.88542 0.28776-1.9922 0-1.0404-0.15495-1.9922-0.13281-0.95182-0.3763-1.793-0.22136-0.81901-0.53125-1.5274-0.28776-0.68619-0.61979-1.1732l2.8555-1.3503q0.53125 0.81901 0.97396 1.793 0.46485 0.97395 0.77474 2.0364 0.33203 1.0846 0.50912 2.1914 0.19921 1.1289 0.19921 2.2135 0 1.9922-0.48698 3.5859-0.46484 1.5938-1.4609 2.7005t-2.5456 1.7044q-1.5274 0.59765-3.6745 0.59765l-11.466-0.0221v2.5456h-3.8073v-6.6628zm0.6862-5.5781q0 0.81901 0.19922 1.638t0.53125 1.5495q0.35416 0.73047 0.79687 1.3503 0.46485 0.61979 0.95182 1.0404l5.1797 0.0221v-4.7812q0-1.1953-0.26563-2.1914-0.26562-0.97396-0.77474-1.7044-0.50911-0.70833-1.2617-1.1068-0.75261-0.39844-1.7266-0.39844-0.90756 0-1.5938 0.33203-0.66407 0.33204-1.1289 0.92969-0.44271 0.61979-0.6862 1.4609-0.22135 0.84114-0.22135 1.8594zm20.121 17.942v7.4818h-19.125v3.4531h-3.8073v-10.891h3.8073v3.276h15.318v-3.3203zm8.1237 2.5456q0.57552 0 1.0846 0.22135 0.53125 0.24349 0.90755 0.61979 0.39844 0.39844 0.61979 0.92969 0.24349 0.53125 0.24349 1.1289 0 0.57552-0.24349 1.0846-0.22135 0.53125-0.61979 0.90755-0.3763 0.39844-0.90755 0.61979-0.50912 0.24349-1.0846 0.24349-0.59765 0-1.1289-0.24349-0.53125-0.22135-0.95183-0.61979-0.39843-0.3763-0.64192-0.90755-0.22136-0.50911-0.22136-1.0846 0-0.59766 0.22136-1.1289 0.24349-0.53125 0.64192-0.92969 0.42058-0.3763 0.95183-0.61979 0.53125-0.22135 1.1289-0.22135zm-12.971 29.895v-4.2057h1.4167q0-0.73047-0.28776-1.5052-0.26562-0.7526-0.84114-1.4167-0.55339-0.66406-1.4388-1.1732-0.86328-0.48698-2.0586-0.70833h-11.068v3.8958h-3.8073v-11.378h3.8073v3.1654l15.318 0.0221v-3.1875h3.8073v7.3268h-3.1654q0.70833 0.39844 1.306 0.88542 0.61979 0.50911 1.0625 1.1068 0.46484 0.61979 0.70833 1.3503 0.26562 0.7526 0.26562 1.6159 0 1.151 0 2.1693 0 1.0182-0.0443 2.0365z"
         style="fill-opacity:.8;fill:#00baba" />
      <path
         id="path5"
         d="m488.89-83.566v3.431h21.405v-3.431h6.1315l-0.0443 16.358c0 1.52-0.273 2.9071-0.81901 4.1615-0.53125 1.2691-1.2617 2.3611-2.1914 3.276-0.91493 0.91493-1.9922 1.6233-3.2318 2.125-1.2248 0.51649-2.5308 0.77474-3.918 0.77474-1.6233 0-2.9661-0.28776-4.0286-0.86328-1.0625-0.56076-1.9184-1.365-2.5677-2.4128-0.70833 1.1068-1.5864 1.9774-2.6341 2.612-1.033 0.6493-2.2947 0.97396-3.7852 0.97396-1.52 0-2.9145-0.26562-4.1836-0.79687-1.2691-0.51649-2.3685-1.2322-3.2982-2.1471-0.91493-0.90017-1.6306-1.97-2.1471-3.2096-0.50174-1.2396-0.75261-2.5751-0.75261-4.0065v-16.845zm7.8138 10.78h-7.8138v5.5781c0 0.42795 0.11068 0.82639 0.33203 1.1953 0.22136 0.38368 0.50912 0.70833 0.86329 0.97396 0.36892 0.28038 0.78949 0.50174 1.2617 0.66406 0.48698 0.16233 0.98872 0.24349 1.5052 0.24349 0.54601 0 1.0477-0.08116 1.5052-0.24349 0.47222-0.16233 0.87804-0.38368 1.2174-0.66406 0.35416-0.28038 0.62716-0.61241 0.819-0.99609 0.2066-0.36892 0.3099-0.75998 0.3099-1.1732zm13.591 0h-7.526v5.2682c0 0.41319 0.1033 0.80425 0.3099 1.1732 0.20659 0.36892 0.4796 0.6862 0.81901 0.95182 0.35417 0.28038 0.74522 0.50174 1.1732 0.66406 0.44271 0.16233 0.90017 0.24349 1.3724 0.24349 0.45746 0 0.91492-0.08116 1.3724-0.24349 0.45747-0.16233 0.87066-0.38368 1.2396-0.66406 0.36893-0.26562 0.66407-0.5829 0.88542-0.95182 0.23611-0.36892 0.35417-0.75998 0.35417-1.1732zm-4.5378 29.872v10.846c-5.4174-0.35868-10.067-2.0607-16.867 0-2.1845 1.0635-3.5691 1.6998-6.0651 5.2928v-12.243h1.9479c-0.70833-0.78212-1.2543-1.697-1.638-2.7448-0.38368-1.0477-0.57552-2.2578-0.57552-3.6302 0-1.2691 0.19922-2.4644 0.59766-3.5859 0.39843-1.1215 0.99609-2.1029 1.793-2.944 0.81163-0.82639 1.8225-1.4831 3.0326-1.97 1.2101-0.47222 2.6341-0.70833 4.2721-0.70833h7.4375v-2.9883c1.4294 1.3435 3.2256 2.4424 5.863 2.9806l0.20207 7.1574h-13.503c-1.5347 0-2.6858 0.39106-3.4531 1.1732-0.7526 0.78212-1.1289 1.8003-1.1289 3.0547 0 0.88542 0.273 1.6897 0.81901 2.4128 0.54601 0.72309 1.2838 1.247 2.2135 1.5716h8.987v-3.6745zm11.51 26.588v10.027h-11.145c-5.7441-1.2201-11.488-1.8039-17.232 0-2.9895 1.0065-4.3459 2.8296-6.0651 4.4714v-11.289h0.88542c-0.41319-0.79688-0.73785-1.6159-0.97396-2.457-0.23611-0.82639-0.35416-1.6675-0.35416-2.5234 0-1.7561 0.30989-3.372 0.92968-4.8477 0.63455-1.4609 1.4978-2.7227 2.5898-3.7852 1.092-1.0477 2.3685-1.8668 3.8294-2.457 1.4757-0.59028 3.0547-0.88542 4.737-0.88542s3.2465 0.28776 4.6927 0.86328c1.4609 0.59028 2.73 1.4019 3.8073 2.4349 1.0772 1.0477 1.9258 2.2947 2.5456 3.7409 0.61979 1.4609 0.92969 3.0621 0.92969 4.8034 0 0.9592-0.0959 1.8594-0.28776 2.7005-0.17709 0.84114-0.43533 1.6454-0.77474 2.4128h5.8216v-3.2096zm-28.776-1.3945c0.0295 0.97396 0.2804 1.852 0.7526 2.6341 0.47222 0.79688 1.092 1.4536 1.8594 1.9701h6.7513c0.78212-0.51649 1.3872-1.1879 1.8151-2.0143 0.44271-0.81163 0.65669-1.6749 0.64193-2.5898 0.0147-0.76736-0.11808-1.4905-0.39844-2.1693-0.28038-0.66406-0.67882-1.2543-1.1953-1.7708-0.51649-0.50174-1.1363-0.90017-1.8594-1.1953s-1.5421-0.44271-2.457-0.44271c-0.90017 0-1.7192 0.14757-2.457 0.44271-0.72309 0.29514-1.3429 0.69358-1.8594 1.1953-0.50174 0.51649-0.88542 1.1068-1.151 1.7708-0.26562 0.67882-0.41319 1.4019-0.4427 2.1693zm28.919 26.854v10.027h-11.288c-7.7214-0.82079-16.134-0.52969-23.155 4.4714v-11.289h0.88542c-0.41319-0.79687-0.73785-1.6159-0.97396-2.457-0.23611-0.82639-0.35416-1.6675-0.35416-2.5234 0-1.7561 0.30989-3.372 0.92968-4.8477 0.63455-1.4609 1.4978-2.7227 2.5898-3.7852 1.092-1.0477 2.3685-1.8668 3.8294-2.457 1.4757-0.59028 3.0547-0.88542 4.737-0.88542s3.2465 0.28776 4.6927 0.86328c1.4609 0.59028 2.73 1.4019 3.8073 2.4349 1.0772 1.0477 1.9258 2.2947 2.5456 3.7409 0.61979 1.4609 0.92969 3.0621 0.92969 4.8034 0 0.9592-0.0959 1.8594-0.28776 2.7005-0.17709 0.84114-0.43533 1.6454-0.77474 2.4128h5.8216v-3.2096zm-28.776-1.3945c0.0295 0.97396 0.2804 1.852 0.7526 2.6341 0.47222 0.79687 1.092 1.4536 1.8594 1.97h6.7513c0.78212-0.51649 1.3872-1.1879 1.8151-2.0143 0.44271-0.81163 0.65669-1.6749 0.64193-2.5898 0.0147-0.76736-0.11808-1.4905-0.39844-2.1693-0.28038-0.66406-0.67882-1.2543-1.1953-1.7708-0.51649-0.50174-1.1363-0.90017-1.8594-1.1953s-1.5421-0.44271-2.457-0.44271c-0.90017 0-1.7192 0.14757-2.457 0.44271-0.72309 0.29514-1.3429 0.69358-1.8594 1.1953-0.50174 0.51649-0.88542 1.1068-1.151 1.7708-0.26562 0.67882-0.41319 1.4019-0.4427 2.1693zm17.123 13.286-0.14289 10.245h-6.0651v-2.4138c-4.2748 0.01964-8.6134 1.3101-9.6602 3.7983l9.6602 3.5296v-1.97h6.0651v11.245h-6.0651v-2.5013l-21.228-8.8763v1.9401l-6.2672-0.70725 0.20207-13.526 5.9641 1.1114 0.10104 4.8951 4.3607 1.7266c2.3884-2.714 5.2894-5.8197 17.01-7.6005l-0.21433-1.4669c2.3425-0.31372 4.3084-0.04322 6.2794 0.57155z"
         style="fill-opacity:0.8;fill:#666666" />
      <circle
         id="path6"
         transform="rotate(90)"
         cx="-116.85"
         cy="-513.82"
         r="3.0311"
         style="fill-opacity:1;fill:#00ffff;stroke-linecap:square;stroke-width:2.4338" />
    </g>
  </g>
</svg>
